<svg width="33" height="32" viewBox="0 0 33 32" fill="none" xmlns="http://www.w3.org/2000/svg">
<g id="spa-outline 1">
<path id="Vector" d="M17.8921 24.2783V22.2283C19.3921 21.795 20.6004 20.9617 21.5171 19.7283C22.4338 18.495 22.8921 17.095 22.8921 15.5283C22.8921 13.9617 22.4338 12.5617 21.5171 11.3283C20.6004 10.095 19.3921 9.26165 17.8921 8.82832V6.77832C19.9588 7.24499 21.6421 8.29082 22.9421 9.91582C24.2421 11.5408 24.8921 13.4117 24.8921 15.5283C24.8921 17.645 24.2421 19.5158 22.9421 21.1408C21.6421 22.7658 19.9588 23.8117 17.8921 24.2783ZM6.89209 18.5533V12.5533H10.8921L15.8921 7.55332V23.5533L10.8921 18.5533H6.89209ZM17.8921 19.5533V11.5033C18.6754 11.87 19.2879 12.42 19.7296 13.1533C20.1713 13.8867 20.3921 14.6867 20.3921 15.5533C20.3921 16.4033 20.1713 17.1908 19.7296 17.9158C19.2879 18.6408 18.6754 19.1867 17.8921 19.5533Z" fill="white"/>
</g>
</svg>
